<?xml version="1.0" standalone="no"?>
<!DOCTYPE svg PUBLIC "-//W3C//DTD SVG 20010904//EN"
 "http://www.w3.org/TR/2001/REC-SVG-20010904/DTD/svg10.dtd">
<svg version="1.0" xmlns="http://www.w3.org/2000/svg"
 width="1170.000000pt" height="1150.000000pt" viewBox="0 0 1170.000000 1150.000000"
 preserveAspectRatio="xMidYMid meet">

<g transform="translate(0.000000,1150.000000) scale(0.100000,-0.100000)"
fill="#000000" stroke="none">
<path d="M6606 8589 l-26 -20 0 -280 0 -279 -1010 0 -1010 0 0 143 c0 127 -2
146 -18 160 -16 15 -46 17 -215 17 -244 0 -227 13 -227 -182 l0 -138 -80 0
c-73 0 -83 -3 -105 -25 l-25 -24 0 -809 c0 -952 -15 -855 129 -860 l91 -4 0
-273 0 -274 27 -21 c19 -15 35 -19 53 -15 55 14 55 14 60 313 l5 277 69 2 c59
1 73 5 105 31 83 67 124 184 142 411 15 190 40 239 146 288 105 48 179 53 824
53 663 0 649 1 729 -67 57 -49 90 -121 90 -198 0 -37 -44 -279 -115 -629 -63
-313 -115 -582 -115 -596 0 -15 8 -34 18 -43 17 -15 76 -17 645 -17 679 0 648
-2 662 53 3 12 4 441 2 952 -3 855 -5 935 -21 989 -68 230 -233 395 -456 460
-30 9 -101 19 -157 23 l-102 6 -3 279 -3 280 -24 19 c-30 24 -52 24 -85 -2z
m-2178 -486 l3 -93 -96 0 -95 0 0 95 0 96 93 -3 92 -3 3 -92z m2535 -256 c154
-54 271 -169 330 -325 22 -57 22 -63 25 -959 l3 -903 -521 0 c-286 0 -520 1
-520 3 0 1 50 250 110 552 61 302 110 570 110 595 0 61 -25 155 -55 205 -56
95 -162 170 -273 194 -67 14 -1127 15 -1261 1 -256 -27 -393 -108 -446 -265
-9 -27 -23 -113 -30 -190 -17 -170 -29 -228 -58 -280 l-23 -40 -162 0 c-89 0
-162 3 -162 8 0 4 0 327 0 717 l0 710 1443 -3 c1330 -2 1446 -4 1490 -20z"/>
<path d="M6750 6221 c-73 -15 -151 -63 -184 -112 -66 -102 -20 -215 113 -278
50 -23 68 -26 166 -26 100 0 116 3 170 28 71 33 100 59 126 109 47 91 3 188
-112 247 -58 29 -78 34 -155 37 -49 1 -105 0 -124 -5z m234 -160 c30 -19 37
-28 34 -50 -5 -40 -78 -73 -166 -73 -82 -1 -131 14 -163 48 -29 31 -20 50 42
82 38 20 55 23 130 20 67 -3 93 -9 123 -27z"/>
<path d="M7931 8318 c-19 -12 -44 -36 -55 -51 -21 -28 -21 -32 -21 -872 0
-836 0 -844 21 -871 32 -44 68 -66 117 -71 93 -11 168 41 187 131 8 35 10 293
8 846 -3 883 1 831 -70 881 -49 35 -142 39 -187 7z m108 -122 c8 -10 10 -229
9 -807 l-3 -794 -24 -3 c-13 -2 -28 2 -32 10 -13 20 -11 1565 1 1589 12 22 33
25 49 5z"/>
<path d="M7602 7827 c-22 -23 -22 -29 -22 -333 0 -264 2 -313 16 -332 20 -29
74 -30 100 -1 18 20 19 40 19 336 l0 315 -24 19 c-31 25 -63 24 -89 -4z"/>
<path d="M3534 5346 c-17 -13 -19 -29 -22 -158 -3 -134 -2 -145 18 -171 l21
-27 2083 0 c2005 0 2084 1 2099 18 14 16 17 43 17 169 0 133 -2 152 -18 166
-17 16 -177 17 -2098 17 -1779 0 -2083 -2 -2100 -14z m4084 -168 l-3 -53
-1980 0 -1980 0 -3 53 -3 52 1986 0 1986 0 -3 -52z"/>
<path d="M4395 4450 c-65 -12 -215 -87 -287 -145 -133 -107 -196 -273 -122
-322 81 -53 292 88 319 214 5 21 -1 16 -23 -23 -54 -90 -185 -193 -247 -194
-11 0 -31 7 -43 16 -52 36 -8 137 111 251 129 123 262 193 367 193 41 0 52 -4
69 -26 26 -33 26 -60 3 -122 -54 -142 -240 -326 -392 -389 -45 -18 -67 -21
-120 -17 -50 5 -70 2 -85 -10 -17 -14 -18 -17 -5 -26 9 -6 32 -7 55 -3 85 14
90 12 93 -34 2 -27 -4 -59 -16 -85 -20 -45 -116 -158 -133 -158 -6 0 -22 14
-36 30 -52 62 -190 109 -319 110 -76 0 -194 -30 -256 -65 -169 -95 -197 -264
-53 -318 72 -28 247 -18 365 19 317 99 556 341 481 487 -21 41 -22 39 34 57
22 7 78 32 125 56 229 117 371 327 305 453 -23 46 -100 66 -190 51z m-583
-807 c72 -34 109 -74 92 -101 -15 -23 -139 -106 -219 -146 -123 -60 -263 -86
-361 -66 -140 29 -165 143 -54 244 85 77 189 107 355 103 110 -3 125 -5 187
-34z"/>
<path d="M6285 4449 c-131 -10 -223 -32 -311 -74 -137 -66 -201 -180 -160
-285 5 -11 -11 -20 -67 -37 -129 -40 -272 -144 -321 -234 -38 -72 -235 -209
-297 -209 -58 0 -44 52 43 153 45 51 54 57 89 57 79 0 204 84 197 132 -7 50
-87 33 -199 -41 -82 -54 -112 -81 -181 -163 -78 -92 -218 -171 -218 -123 0 10
58 76 130 146 74 73 132 138 136 153 8 32 -10 56 -41 56 -30 0 -136 -55 -223
-115 l-67 -47 78 76 c66 64 75 76 55 76 -37 0 -87 -36 -173 -125 -137 -140
-270 -243 -301 -231 -27 10 12 62 159 213 101 103 134 143 120 143 -11 0 -39
-13 -61 -30 -48 -35 -57 -37 -41 -11 34 53 -39 68 -128 27 -117 -55 -213 -136
-272 -230 -44 -70 -39 -136 9 -136 22 0 88 37 137 76 23 19 44 34 46 34 3 0
-1 -14 -10 -31 -20 -39 -5 -79 29 -79 25 0 102 43 158 87 l34 28 -22 -36 c-22
-36 -29 -79 -14 -79 5 0 32 29 61 65 29 36 81 89 115 119 138 120 341 231 307
168 -5 -10 -52 -55 -104 -100 -108 -93 -157 -159 -157 -209 0 -61 64 -57 165
12 l65 45 0 -40 c0 -44 18 -60 68 -60 40 0 135 50 210 110 l62 50 0 -68 c0
-118 47 -162 180 -170 123 -7 254 36 392 129 35 24 164 142 288 264 253 249
378 351 496 407 105 49 123 49 45 -2 -120 -78 -227 -203 -393 -460 -54 -84
-115 -165 -146 -194 -28 -27 -52 -55 -52 -62 0 -30 31 -11 87 52 127 144 591
509 812 638 80 47 232 116 254 116 7 0 -17 -16 -53 -35 -146 -78 -407 -297
-560 -470 -155 -175 -216 -270 -195 -305 11 -18 41 7 91 77 75 105 208 255
365 410 249 247 405 354 516 357 34 1 46 4 36 10 -8 4 -42 5 -75 2 -228 -26
-543 -209 -928 -539 -74 -64 -139 -116 -143 -117 -5 0 16 28 45 63 30 34 101
123 158 197 224 292 281 339 363 299 20 -9 21 -9 4 5 -38 30 -273 81 -422 91
-44 3 -100 7 -125 9 -25 2 -90 0 -145 -5z m426 -45 c69 -8 138 -18 155 -23
l29 -8 -30 -7 c-186 -43 -303 -125 -681 -480 -76 -71 -174 -156 -218 -188
-283 -210 -556 -227 -556 -34 0 130 137 280 326 359 195 82 352 37 329 -93 -4
-26 -3 -31 4 -20 20 29 13 87 -15 119 -30 36 -77 51 -156 51 -64 0 -78 13 -78
70 0 47 23 91 68 132 140 126 430 169 823 122z m-2091 -463 c0 -57 -345 -359
-376 -328 -33 33 197 274 323 338 39 20 53 17 53 -10z m820 15 c0 -33 -133
-126 -182 -126 -20 0 -18 4 16 33 66 55 140 106 154 107 6 0 12 -6 12 -14z"/>
<path d="M8198 4276 c-26 -7 -65 -24 -86 -39 -95 -62 -286 -237 -450 -412
-120 -127 -260 -231 -282 -209 -16 16 49 98 192 243 115 116 120 123 88 116
-45 -9 -83 -38 -205 -156 -155 -148 -261 -226 -281 -206 -17 16 23 67 164 206
137 137 151 153 122 148 -66 -14 -234 -155 -298 -252 -41 -62 -44 -112 -7
-121 31 -8 96 23 155 73 32 28 41 32 37 17 -3 -10 -8 -29 -12 -40 -6 -24 17
-54 41 -54 22 0 72 27 132 72 38 28 50 34 43 20 -6 -12 -11 -34 -11 -51 0 -25
5 -32 26 -37 30 -8 98 21 155 67 20 16 39 29 41 29 2 0 2 -20 0 -45 -4 -40 -2
-45 21 -50 29 -8 82 17 152 70 33 26 46 31 40 19 -24 -59 -13 -94 30 -94 40 0
280 178 263 195 -3 3 -27 -14 -54 -38 -103 -91 -195 -150 -210 -135 -16 17 21
65 159 205 108 111 145 153 130 153 -11 0 -35 -10 -54 -23 -62 -42 -62 -42
-49 -17 34 64 -42 68 -161 8 -69 -34 -102 -60 -188 -146 -104 -104 -208 -182
-243 -182 -37 0 -19 37 72 145 135 159 427 430 544 504 55 34 53 36 -16 17z
m-18 -330 c0 -23 -89 -123 -184 -207 -101 -90 -169 -134 -191 -125 -25 9 7 60
99 154 88 90 164 153 222 182 38 20 54 19 54 -4z"/>
<path d="M7213 3973 c-7 -2 -13 -15 -13 -28 0 -69 -273 -317 -365 -332 -20 -3
-35 -1 -35 4 0 40 184 233 292 306 26 18 48 36 48 41 0 16 -177 0 -205 -18
-35 -23 -32 -40 4 -22 30 16 141 37 141 27 -1 -3 -22 -16 -48 -28 -118 -57
-253 -192 -268 -269 -26 -141 197 -33 434 209 88 90 100 118 55 116 -16 0 -34
-3 -40 -6z"/>
<path d="M5175 3239 c-39 -23 -59 -76 -44 -117 6 -18 32 -40 76 -67 72 -43 91
-71 79 -119 -16 -63 -111 -54 -147 14 l-19 35 0 -48 c0 -32 4 -46 11 -42 6 4
30 2 54 -5 85 -24 155 24 155 105 0 50 -22 74 -108 120 -50 26 -57 34 -60 63
-4 40 12 62 45 62 37 0 61 -17 82 -58 18 -33 20 -34 20 -12 -1 38 -12 65 -29
69 -43 10 -97 10 -115 0z"/>
<path d="M5966 3225 c-47 -44 -28 -135 29 -135 16 0 15 4 -8 28 -48 50 -26
122 37 122 46 0 71 -31 70 -85 -1 -55 -36 -115 -116 -200 l-60 -65 106 0 c94
0 106 2 106 18 0 9 3 28 7 42 l6 25 -19 -23 c-14 -17 -34 -24 -81 -28 -39 -4
-63 -3 -63 3 0 5 23 29 51 53 61 52 109 123 109 163 0 90 -110 142 -174 82z"/>
<path d="M6248 3223 c-42 -45 -59 -89 -59 -152 -1 -63 20 -123 53 -158 25 -27
49 -31 25 -5 -40 44 -47 215 -13 296 13 32 20 37 43 34 45 -5 65 -58 65 -173
0 -74 -4 -104 -20 -135 -17 -36 -18 -38 -2 -30 10 5 30 33 44 62 43 86 31 190
-30 254 -39 42 -71 44 -106 7z"/>
<path d="M6466 3224 c-48 -49 -27 -134 33 -134 21 0 21 2 -8 26 -54 45 -33
124 33 124 46 0 71 -31 70 -85 -1 -55 -36 -115 -116 -200 l-60 -65 106 0 c94
0 106 2 106 18 0 9 3 28 7 42 l6 25 -19 -23 c-14 -17 -34 -24 -81 -28 -36 -4
-63 -3 -63 2 0 5 27 33 60 63 89 78 117 143 88 206 -26 58 -117 74 -162 29z"/>
<path d="M6765 3240 c-1 -3 -5 -25 -9 -50 -5 -40 -4 -42 4 -13 9 29 14 32 49
30 35 -1 71 15 71 32 0 7 -111 8 -115 1z"/>
<path d="M4815 3226 c16 -11 20 -29 23 -110 6 -136 -4 -205 -31 -216 -14 -6
33 -9 131 -9 l152 -1 -1 53 -1 52 -14 -32 c-17 -39 -59 -63 -113 -63 -58 0
-71 18 -71 101 0 65 1 69 23 69 26 0 52 -17 60 -40 3 -8 5 12 5 45 0 33 -2 52
-5 42 -3 -10 -16 -22 -29 -28 -51 -19 -54 -15 -54 66 l0 75 51 0 c60 0 83 -11
104 -48 l15 -27 -2 40 -3 40 -130 3 c-114 2 -127 1 -110 -12z"/>
<path d="M5365 3199 c-4 -22 -4 -43 -1 -46 3 -4 6 1 6 11 0 32 46 66 90 66
l41 0 -3 -157 c-3 -157 -3 -157 -28 -170 -22 -11 -15 -13 60 -13 75 0 82 2 60
13 -25 13 -25 13 -28 170 l-3 157 36 0 c48 0 74 -15 90 -53 13 -30 14 -31 14
-7 1 14 -2 35 -5 48 -6 22 -9 22 -164 22 l-158 0 -7 -41z"/>
<path d="M6738 3106 c-4 -22 -6 -40 -5 -41 1 -1 13 10 26 24 14 14 17 22 8 18
-11 -4 -17 1 -19 16 -2 15 -6 10 -10 -17z"/>
<path d="M6817 3095 c61 -43 21 -202 -51 -206 -16 -1 -17 -2 -4 -6 28 -7 87
24 108 59 42 69 10 167 -55 168 -18 0 -18 -1 2 -15z"/>
<path d="M6677 2956 c-8 -19 30 -66 51 -65 11 0 12 2 5 6 -7 2 -13 13 -13 23
0 44 -31 69 -43 36z"/>
<path d="M5732 2918 c2 -15 10 -23 23 -23 13 0 21 8 23 23 3 18 -1 22 -23 22
-22 0 -26 -4 -23 -22z"/>
</g>
</svg>
